<mxfile host="Electron" agent="Mozilla/5.0 (Windows NT 10.0; Win64; x64) AppleWebKit/537.36 (KHTML, like Gecko) draw.io/26.2.15 Chrome/134.0.6998.205 Electron/35.2.1 Safari/537.36" version="26.2.15">
  <diagram name="Page-1" id="7e0a89b8-554c-2b80-1dc8-d5c74ca68de4">
    <mxGraphModel dx="1738" dy="1098" grid="1" gridSize="10" guides="1" tooltips="1" connect="1" arrows="1" fold="1" page="1" pageScale="1" pageWidth="1100" pageHeight="850" background="none" math="0" shadow="0">
      <root>
        <mxCell id="0" />
        <mxCell id="1" parent="0" />
        <mxCell id="SyoJ1YEEXBXGnazBfG_6-50" value="" style="rounded=0;whiteSpace=wrap;html=1;dashed=1;dashPattern=1 4;strokeWidth=1;opacity=50;" parent="1" vertex="1">
          <mxGeometry x="820" y="360" width="140" height="360" as="geometry" />
        </mxCell>
        <mxCell id="SyoJ1YEEXBXGnazBfG_6-48" value="" style="rounded=0;whiteSpace=wrap;html=1;dashed=1;dashPattern=1 4;strokeWidth=1;opacity=50;" parent="1" vertex="1">
          <mxGeometry x="450" y="605" width="130" height="110" as="geometry" />
        </mxCell>
        <mxCell id="SyoJ1YEEXBXGnazBfG_6-46" value="" style="rounded=0;whiteSpace=wrap;html=1;dashed=1;dashPattern=1 4;strokeWidth=1;opacity=50;" parent="1" vertex="1">
          <mxGeometry x="450" y="350" width="160" height="160" as="geometry" />
        </mxCell>
        <mxCell id="aT6PwvXD0hIdykntmq23-1" value="" style="pointerEvents=1;verticalLabelPosition=bottom;shadow=0;dashed=0;align=center;html=1;verticalAlign=top;shape=mxgraph.electrical.signal_sources.source;aspect=fixed;points=[[0.5,0,0],[1,0.5,0],[0.5,1,0],[0,0.5,0]];elSignalType=ac;" parent="1" vertex="1">
          <mxGeometry x="140" y="176" width="60" height="60" as="geometry" />
        </mxCell>
        <mxCell id="aT6PwvXD0hIdykntmq23-2" value="&lt;div style=&quot;line-height: 50%;&quot;&gt;&lt;font style=&quot;line-height: 50%; font-size: 12px;&quot;&gt;radon / fire&lt;/font&gt;&lt;div&gt;&lt;span style=&quot;background-color: transparent; color: light-dark(rgb(0, 0, 0), rgb(255, 255, 255)); line-height: 50%;&quot;&gt;&lt;font style=&quot;font-size: 12px;&quot;&gt;pump&lt;/font&gt;&lt;/span&gt;&lt;/div&gt;&lt;/div&gt;" style="verticalLabelPosition=middle;shadow=0;dashed=0;align=center;html=1;verticalAlign=middle;strokeWidth=1;shape=ellipse;aspect=fixed;fontSize=35;" parent="1" vertex="1">
          <mxGeometry x="860" y="560" width="60" height="60" as="geometry" />
        </mxCell>
        <mxCell id="aT6PwvXD0hIdykntmq23-4" value="&lt;font&gt;pressure/depth sensor&lt;/font&gt;" style="pointerEvents=1;verticalLabelPosition=bottom;shadow=0;dashed=0;align=center;html=1;verticalAlign=top;shape=mxgraph.electrical.miscellaneous.transducer" parent="1" vertex="1">
          <mxGeometry x="871.5" y="640" width="45" height="40" as="geometry" />
        </mxCell>
        <mxCell id="aT6PwvXD0hIdykntmq23-11" value="&lt;font style=&quot;font-size: 12px;&quot;&gt;well pump&lt;/font&gt;" style="verticalLabelPosition=middle;shadow=0;dashed=0;align=center;html=1;verticalAlign=middle;strokeWidth=1;shape=ellipse;aspect=fixed;fontSize=35;" parent="1" vertex="1">
          <mxGeometry x="707.5" y="250" width="60" height="60" as="geometry" />
        </mxCell>
        <mxCell id="aT6PwvXD0hIdykntmq23-22" value="raspberry pi with 4-20mA board and wifi" style="whiteSpace=wrap;html=1;aspect=fixed;" parent="1" vertex="1">
          <mxGeometry x="475" y="620" width="80" height="80" as="geometry" />
        </mxCell>
        <mxCell id="aT6PwvXD0hIdykntmq23-27" value="well pump control&lt;div&gt;system&lt;/div&gt;" style="whiteSpace=wrap;html=1;aspect=fixed;" parent="1" vertex="1">
          <mxGeometry x="260" y="240" width="80" height="80" as="geometry" />
        </mxCell>
        <mxCell id="SyoJ1YEEXBXGnazBfG_6-1" value="" style="endArrow=none;html=1;rounded=0;entryX=0;entryY=0.5;entryDx=0;entryDy=0;entryPerimeter=0;exitX=1;exitY=0.5;exitDx=0;exitDy=0;fillColor=#0050ef;strokeColor=#001DBC;" parent="1" source="aT6PwvXD0hIdykntmq23-22" target="aT6PwvXD0hIdykntmq23-4" edge="1">
          <mxGeometry width="50" height="50" relative="1" as="geometry">
            <mxPoint x="530" y="590" as="sourcePoint" />
            <mxPoint x="580" y="540" as="targetPoint" />
          </mxGeometry>
        </mxCell>
        <mxCell id="SyoJ1YEEXBXGnazBfG_6-4" value="" style="endArrow=none;html=1;rounded=0;entryX=0;entryY=0.5;entryDx=0;entryDy=0;strokeWidth=2;" parent="1" target="aT6PwvXD0hIdykntmq23-27" edge="1">
          <mxGeometry width="50" height="50" relative="1" as="geometry">
            <mxPoint x="170" y="280" as="sourcePoint" />
            <mxPoint x="580" y="540" as="targetPoint" />
          </mxGeometry>
        </mxCell>
        <mxCell id="SyoJ1YEEXBXGnazBfG_6-6" value="" style="endArrow=none;html=1;rounded=0;entryX=0;entryY=0.5;entryDx=0;entryDy=0;exitX=1;exitY=0.5;exitDx=0;exitDy=0;strokeWidth=2;" parent="1" source="aT6PwvXD0hIdykntmq23-27" target="aT6PwvXD0hIdykntmq23-11" edge="1">
          <mxGeometry width="50" height="50" relative="1" as="geometry">
            <mxPoint x="410" y="360" as="sourcePoint" />
            <mxPoint x="463" y="269.45000000000005" as="targetPoint" />
          </mxGeometry>
        </mxCell>
        <mxCell id="SyoJ1YEEXBXGnazBfG_6-7" value="" style="endArrow=none;html=1;rounded=0;entryX=0.5;entryY=1;entryDx=0;entryDy=0;entryPerimeter=0;strokeWidth=2;" parent="1" target="aT6PwvXD0hIdykntmq23-1" edge="1">
          <mxGeometry width="50" height="50" relative="1" as="geometry">
            <mxPoint x="170" y="280" as="sourcePoint" />
            <mxPoint x="580" y="540" as="targetPoint" />
          </mxGeometry>
        </mxCell>
        <mxCell id="SyoJ1YEEXBXGnazBfG_6-8" value="" style="endArrow=none;html=1;rounded=0;strokeWidth=2;" parent="1" edge="1">
          <mxGeometry width="50" height="50" relative="1" as="geometry">
            <mxPoint x="170" y="380" as="sourcePoint" />
            <mxPoint x="170" y="280" as="targetPoint" />
          </mxGeometry>
        </mxCell>
        <mxCell id="SyoJ1YEEXBXGnazBfG_6-9" value="" style="endArrow=none;html=1;rounded=0;fillColor=#0050ef;strokeColor=#001DBC;exitX=0.5;exitY=1;exitDx=0;exitDy=0;" parent="1" source="aT6PwvXD0hIdykntmq23-22" edge="1">
          <mxGeometry width="50" height="50" relative="1" as="geometry">
            <mxPoint x="620" y="640" as="sourcePoint" />
            <mxPoint x="515" y="750" as="targetPoint" />
          </mxGeometry>
        </mxCell>
        <mxCell id="SyoJ1YEEXBXGnazBfG_6-10" value="" style="endArrow=none;html=1;rounded=0;entryX=0.5;entryY=1;entryDx=0;entryDy=0;fillColor=#0050ef;strokeColor=#001DBC;" parent="1" target="aT6PwvXD0hIdykntmq23-27" edge="1">
          <mxGeometry width="50" height="50" relative="1" as="geometry">
            <mxPoint x="300" y="660" as="sourcePoint" />
            <mxPoint x="480" y="340" as="targetPoint" />
          </mxGeometry>
        </mxCell>
        <mxCell id="SyoJ1YEEXBXGnazBfG_6-59" value="circulation trigger" style="edgeLabel;html=1;align=center;verticalAlign=middle;resizable=0;points=[];" parent="SyoJ1YEEXBXGnazBfG_6-10" vertex="1" connectable="0">
          <mxGeometry x="-0.0747" y="3" relative="1" as="geometry">
            <mxPoint as="offset" />
          </mxGeometry>
        </mxCell>
        <mxCell id="SyoJ1YEEXBXGnazBfG_6-12" value="" style="endArrow=none;html=1;rounded=0;exitX=0.509;exitY=0.97;exitDx=0;exitDy=0;exitPerimeter=0;fillColor=#0050ef;strokeColor=#001DBC;entryX=0.25;entryY=0;entryDx=0;entryDy=0;" parent="1" source="aT6PwvXD0hIdykntmq23-20" edge="1">
          <mxGeometry width="50" height="50" relative="1" as="geometry">
            <mxPoint x="434" y="390" as="sourcePoint" />
            <mxPoint x="499" y="620" as="targetPoint" />
          </mxGeometry>
        </mxCell>
        <mxCell id="SyoJ1YEEXBXGnazBfG_6-13" value="" style="endArrow=none;html=1;rounded=0;entryX=0;entryY=0.25;entryDx=0;entryDy=0;fillColor=#0050ef;strokeColor=#001DBC;" parent="1" edge="1">
          <mxGeometry width="50" height="50" relative="1" as="geometry">
            <mxPoint x="300" y="660" as="sourcePoint" />
            <mxPoint x="475" y="660" as="targetPoint" />
          </mxGeometry>
        </mxCell>
        <mxCell id="SyoJ1YEEXBXGnazBfG_6-14" value="SSR" style="whiteSpace=wrap;html=1;aspect=fixed;" parent="1" vertex="1">
          <mxGeometry x="559" y="365" width="32" height="32" as="geometry" />
        </mxCell>
        <mxCell id="SyoJ1YEEXBXGnazBfG_6-21" value="" style="endArrow=none;html=1;rounded=0;entryX=0;entryY=0.5;entryDx=0;entryDy=0;strokeWidth=2;" parent="1" target="SyoJ1YEEXBXGnazBfG_6-14" edge="1">
          <mxGeometry width="50" height="50" relative="1" as="geometry">
            <mxPoint x="170" y="380" as="sourcePoint" />
            <mxPoint x="610" y="410" as="targetPoint" />
          </mxGeometry>
        </mxCell>
        <mxCell id="SyoJ1YEEXBXGnazBfG_6-22" value="" style="endArrow=none;html=1;rounded=0;strokeWidth=2;entryX=1;entryY=0.5;entryDx=0;entryDy=0;" parent="1" target="SyoJ1YEEXBXGnazBfG_6-24" edge="1">
          <mxGeometry width="50" height="50" relative="1" as="geometry">
            <mxPoint x="890" y="471" as="sourcePoint" />
            <mxPoint x="650" y="480" as="targetPoint" />
          </mxGeometry>
        </mxCell>
        <mxCell id="SyoJ1YEEXBXGnazBfG_6-23" value="normally open&lt;div&gt;&lt;span style=&quot;background-color: transparent; color: light-dark(rgb(0, 0, 0), rgb(255, 255, 255));&quot;&gt;circulate / firepump&lt;/span&gt;&lt;div&gt;mode valve&lt;/div&gt;&lt;/div&gt;" style="verticalLabelPosition=bottom;align=center;html=1;verticalAlign=top;pointerEvents=1;dashed=0;shape=mxgraph.pid2valves.valve;valveType=gate;actuator=solenoid" parent="1" vertex="1">
          <mxGeometry x="869" y="377" width="42" height="30" as="geometry" />
        </mxCell>
        <mxCell id="SyoJ1YEEXBXGnazBfG_6-24" value="SSR" style="whiteSpace=wrap;html=1;aspect=fixed;" parent="1" vertex="1">
          <mxGeometry x="559" y="455" width="32" height="32" as="geometry" />
        </mxCell>
        <mxCell id="SyoJ1YEEXBXGnazBfG_6-25" value="" style="endArrow=none;html=1;rounded=0;exitX=1;exitY=0.5;exitDx=0;exitDy=0;entryX=0.349;entryY=0.146;entryDx=0;entryDy=0;entryPerimeter=0;strokeWidth=2;" parent="1" source="SyoJ1YEEXBXGnazBfG_6-14" target="SyoJ1YEEXBXGnazBfG_6-23" edge="1">
          <mxGeometry width="50" height="50" relative="1" as="geometry">
            <mxPoint x="652" y="437" as="sourcePoint" />
            <mxPoint x="540" y="319" as="targetPoint" />
          </mxGeometry>
        </mxCell>
        <mxCell id="SyoJ1YEEXBXGnazBfG_6-33" value="" style="endArrow=none;html=1;rounded=0;strokeWidth=2;" parent="1" edge="1">
          <mxGeometry width="50" height="50" relative="1" as="geometry">
            <mxPoint x="540" y="471" as="sourcePoint" />
            <mxPoint x="559" y="471" as="targetPoint" />
          </mxGeometry>
        </mxCell>
        <mxCell id="SyoJ1YEEXBXGnazBfG_6-34" value="" style="endArrow=none;html=1;rounded=0;strokeWidth=2;entryX=0.495;entryY=-0.016;entryDx=0;entryDy=0;entryPerimeter=0;" parent="1" target="aT6PwvXD0hIdykntmq23-20" edge="1">
          <mxGeometry width="50" height="50" relative="1" as="geometry">
            <mxPoint x="499" y="380" as="sourcePoint" />
            <mxPoint x="430" y="450" as="targetPoint" />
          </mxGeometry>
        </mxCell>
        <mxCell id="SyoJ1YEEXBXGnazBfG_6-35" value="" style="endArrow=none;html=1;rounded=0;exitX=0.5;exitY=0;exitDx=0;exitDy=0;fillColor=#0050ef;strokeColor=#001DBC;" parent="1" edge="1">
          <mxGeometry width="50" height="50" relative="1" as="geometry">
            <mxPoint x="520" y="620" as="sourcePoint" />
            <mxPoint x="520" y="390" as="targetPoint" />
          </mxGeometry>
        </mxCell>
        <mxCell id="SyoJ1YEEXBXGnazBfG_6-37" value="" style="endArrow=none;html=1;rounded=0;fillColor=#0050ef;strokeColor=#001DBC;" parent="1" edge="1">
          <mxGeometry width="50" height="50" relative="1" as="geometry">
            <mxPoint x="540" y="620" as="sourcePoint" />
            <mxPoint x="540" y="480" as="targetPoint" />
          </mxGeometry>
        </mxCell>
        <mxCell id="SyoJ1YEEXBXGnazBfG_6-38" value="" style="endArrow=none;html=1;rounded=0;fillColor=#0050ef;strokeColor=#001DBC;exitX=0;exitY=0.75;exitDx=0;exitDy=0;" parent="1" edge="1">
          <mxGeometry width="50" height="50" relative="1" as="geometry">
            <mxPoint x="559" y="480" as="sourcePoint" />
            <mxPoint x="540" y="480" as="targetPoint" />
          </mxGeometry>
        </mxCell>
        <mxCell id="SyoJ1YEEXBXGnazBfG_6-39" value="" style="endArrow=none;html=1;rounded=0;fillColor=#0050ef;strokeColor=#001DBC;exitX=0.001;exitY=0.787;exitDx=0;exitDy=0;exitPerimeter=0;" parent="1" source="SyoJ1YEEXBXGnazBfG_6-14" edge="1">
          <mxGeometry width="50" height="50" relative="1" as="geometry">
            <mxPoint x="620" y="390" as="sourcePoint" />
            <mxPoint x="520" y="390" as="targetPoint" />
          </mxGeometry>
        </mxCell>
        <mxCell id="SyoJ1YEEXBXGnazBfG_6-44" value="&lt;div&gt;&lt;br&gt;&lt;/div&gt;&lt;div&gt;&lt;div&gt;&lt;span style=&quot;background-color: transparent; color: light-dark(rgb(0, 0, 0), rgb(255, 255, 255));&quot;&gt;&lt;br&gt;&lt;/span&gt;&lt;/div&gt;&lt;div&gt;&lt;span style=&quot;background-color: transparent; color: light-dark(rgb(0, 0, 0), rgb(255, 255, 255));&quot;&gt;&lt;br&gt;&lt;/span&gt;&lt;/div&gt;&lt;div&gt;&lt;span style=&quot;background-color: transparent; color: light-dark(rgb(0, 0, 0), rgb(255, 255, 255));&quot;&gt;&lt;br&gt;&lt;/span&gt;&lt;/div&gt;&lt;div&gt;&lt;span style=&quot;background-color: transparent; color: light-dark(rgb(0, 0, 0), rgb(255, 255, 255));&quot;&gt;firepump switch&lt;/span&gt;&lt;/div&gt;&lt;/div&gt;&lt;div&gt;&lt;span style=&quot;background-color: transparent; color: light-dark(rgb(0, 0, 0), rgb(255, 255, 255));&quot;&gt;on / off / timer&lt;/span&gt;&lt;/div&gt;" style="html=1;shape=mxgraph.electrical.electro-mechanical.twoWaySwitch;aspect=fixed;elSwitchState=2;" parent="1" vertex="1">
          <mxGeometry x="477.5" y="750" width="75" height="26" as="geometry" />
        </mxCell>
        <mxCell id="SyoJ1YEEXBXGnazBfG_6-52" value="" style="endArrow=none;html=1;rounded=0;strokeWidth=2;" parent="1" edge="1">
          <mxGeometry width="50" height="50" relative="1" as="geometry">
            <mxPoint x="913" y="130" as="sourcePoint" />
            <mxPoint x="963" y="80" as="targetPoint" />
          </mxGeometry>
        </mxCell>
        <mxCell id="SyoJ1YEEXBXGnazBfG_6-53" value="240VAC" style="edgeLabel;html=1;align=center;verticalAlign=middle;resizable=0;points=[];" parent="SyoJ1YEEXBXGnazBfG_6-52" vertex="1" connectable="0">
          <mxGeometry x="0.1576" y="-2" relative="1" as="geometry">
            <mxPoint as="offset" />
          </mxGeometry>
        </mxCell>
        <mxCell id="SyoJ1YEEXBXGnazBfG_6-54" value="" style="endArrow=none;html=1;rounded=0;fillColor=#6a00ff;strokeColor=#3700CC;" parent="1" edge="1">
          <mxGeometry width="50" height="50" relative="1" as="geometry">
            <mxPoint x="993" y="130" as="sourcePoint" />
            <mxPoint x="1043" y="80" as="targetPoint" />
          </mxGeometry>
        </mxCell>
        <mxCell id="SyoJ1YEEXBXGnazBfG_6-55" value="LVDC" style="edgeLabel;html=1;align=center;verticalAlign=middle;resizable=0;points=[];" parent="SyoJ1YEEXBXGnazBfG_6-54" vertex="1" connectable="0">
          <mxGeometry x="0.0335" y="1" relative="1" as="geometry">
            <mxPoint as="offset" />
          </mxGeometry>
        </mxCell>
        <mxCell id="SyoJ1YEEXBXGnazBfG_6-58" value="" style="endArrow=none;html=1;rounded=0;strokeWidth=2;" parent="1" edge="1">
          <mxGeometry width="50" height="50" relative="1" as="geometry">
            <mxPoint x="500" y="380" as="sourcePoint" />
            <mxPoint x="540" y="470" as="targetPoint" />
          </mxGeometry>
        </mxCell>
        <mxCell id="SyoJ1YEEXBXGnazBfG_6-60" value="" style="endArrow=none;html=1;rounded=0;strokeWidth=2;exitX=0.5;exitY=0;exitDx=0;exitDy=0;" parent="1" source="aT6PwvXD0hIdykntmq23-2" edge="1">
          <mxGeometry width="50" height="50" relative="1" as="geometry">
            <mxPoint x="790" y="480" as="sourcePoint" />
            <mxPoint x="890" y="470" as="targetPoint" />
          </mxGeometry>
        </mxCell>
        <mxCell id="aT6PwvXD0hIdykntmq23-20" value="power&amp;nbsp;&lt;span style=&quot;background-color: transparent; color: light-dark(rgb(0, 0, 0), rgb(255, 255, 255));&quot;&gt;supply&lt;/span&gt;" style="pointerEvents=1;verticalLabelPosition=bottom;shadow=0;dashed=0;align=center;html=1;verticalAlign=top;shape=mxgraph.electrical.inductors.transformer_1;" parent="1" vertex="1">
          <mxGeometry x="484" y="460" width="30" height="25" as="geometry" />
        </mxCell>
      </root>
    </mxGraphModel>
  </diagram>
</mxfile>
